<?xml version="1.0" encoding="UTF-8" standalone="no"?>
<!-- Created with Inkscape (http://www.inkscape.org/) -->

<svg
   width="210mm"
   height="297mm"
   viewBox="0 0 210 297"
   version="1.1"
   id="svg1"
   xml:space="preserve"
   inkscape:export-filename="coffee.svg"
   inkscape:export-xdpi="96"
   inkscape:export-ydpi="96"
   xmlns:inkscape="http://www.inkscape.org/namespaces/inkscape"
   xmlns:sodipodi="http://sodipodi.sourceforge.net/DTD/sodipodi-0.dtd"
   xmlns="http://www.w3.org/2000/svg"
   xmlns:svg="http://www.w3.org/2000/svg"><sodipodi:namedview
     id="namedview1"
     pagecolor="#ffffff"
     bordercolor="#000000"
     borderopacity="0.25"
     inkscape:showpageshadow="2"
     inkscape:pageopacity="0.0"
     inkscape:pagecheckerboard="0"
     inkscape:deskcolor="#d1d1d1"
     inkscape:document-units="mm"
     inkscape:zoom="0.71179153"
     inkscape:cx="396.88587"
     inkscape:cy="561.25984"
     inkscape:window-width="1920"
     inkscape:window-height="1008"
     inkscape:window-x="0"
     inkscape:window-y="0"
     inkscape:window-maximized="1"
     inkscape:current-layer="layer1"><inkscape:page
       x="0"
       y="0"
       width="210"
       height="297"
       id="page2"
       margin="0"
       bleed="0" /></sodipodi:namedview><defs
     id="defs1" /><g
     inkscape:label="Layer 1"
     inkscape:groupmode="layer"
     id="layer1"><path
       fill="#000000"
       d="m 84.020293,35.409534 c -3.676468,0.02563 -7.305808,0.548183 -10.828487,1.601142 -3.49498,1.045931 -6.714629,2.561911 -9.636621,4.492542 3.192364,8.11196 11.341944,18.409213 20.782194,27.199581 9.856556,9.178561 21.158401,16.976737 28.457181,20.493627 l 0.0856,0.0413 0.0839,0.0426 c 6.70718,3.44579 11.45563,8.86892 14.19655,14.851404 1.76526,3.85217 2.79342,7.88706 3.39286,11.98893 5.37435,-4.19199 11.03974,-7.54889 16.79939,-9.98513 -0.43822,-7.569564 -2.10344,-15.507064 -5.13622,-23.4549 C 135.85589,66.011903 124.74587,52.592567 112.16369,44.408674 103.12032,38.526656 93.415482,35.344215 84.019879,35.409534 Z M 52.43235,52.898905 c -2.113773,3.280007 -3.847207,6.937045 -5.164336,10.908688 -4.398698,13.25976 -4.041924,29.892953 2.319238,46.562537 3.849688,10.08848 9.441078,18.98386 16.044499,26.25163 6.505443,1.94634 12.939779,4.95349 18.983854,9.03387 4.669896,3.15308 8.831296,6.76217 12.437484,10.68751 1.176982,0.28608 2.354378,0.52999 3.530531,0.72182 2.24069,-5.84482 5.14904,-11.65986 8.73291,-17.30127 2.21299,-3.48258 4.59548,-6.76094 7.11481,-9.82142 0.0298,-2.14643 0.0124,-4.22631 -0.0897,-6.21192 -0.27699,-5.37022 -1.13688,-9.96322 -2.71198,-13.40032 -1.57427,-3.4371 -3.62562,-5.8382 -7.46621,-7.811 l 0.1695,0.0835 C 96.874909,98.044676 85.064157,89.715676 74.194329,79.594123 65.55403,71.549136 57.538808,62.537593 52.43235,52.898492 Z m 115.65268,56.110275 c -5.58395,0.0455 -11.49118,1.34235 -17.46746,3.82323 -12.74961,5.29249 -25.55131,16.01969 -35.02008,30.92194 -4.84395,7.62413 -8.32487,15.57321 -10.48908,23.36725 8.49561,14.2536 10.58209,30.62635 4.46195,44.37642 0.99922,1.42378 2.10013,2.75208 3.3015,3.97412 8.94788,-7.72005 19.26002,-14.11511 26.58898,-20.68215 4.00595,-3.58841 7.03915,-7.14168 8.72463,-10.52545 1.68548,-3.3846 2.2655,-6.48932 1.38906,-10.71687 l -0.0513,-0.24598 -0.0339,-0.24805 c -3.3292,-24.0994 2.51148,-38.26205 11.0232,-46.92633 6.84444,-6.96599 13.65747,-10.63501 18.35754,-15.47895 -3.39576,-1.12862 -7.01642,-1.67019 -10.78508,-1.63918 z m 23.45945,9.90244 c -6.87503,8.54522 -15.35121,12.49206 -20.4155,17.64689 -5.81918,5.92336 -9.8363,13.05346 -6.91017,34.35614 1.4089,7.24297 0.17074,14.19903 -2.71115,19.98514 -2.93399,5.88987 -7.32152,10.67924 -12.11503,14.97459 -7.28141,6.52446 -15.68069,12.1113 -22.70703,17.56172 7.9685,2.06995 17.04082,1.06825 26.27849,-2.76697 12.74961,-5.29166 25.55214,-16.01969 35.02009,-30.92193 9.46919,-14.90266 13.7418,-31.0501 13.11672,-44.83985 -0.47791,-10.54613 -3.73517,-19.58247 -9.55601,-25.99531 z m -27.32567,52.00303 c -0.0248,-0.13022 -0.0447,-0.25962 -0.0719,-0.38984 l 0.086,0.4932 c -0.004,-0.0351 -0.008,-0.0682 -0.0136,-0.10336 z M 48.371409,141.38715 c -7.599743,-0.0686 -14.758789,1.59784 -20.784261,4.88115 0.04134,10e-4 0.07731,0.004 0.118649,0.005 3.567741,0.12609 8.046641,-0.29477 13.203535,0.40927 5.156482,0.70446 11.19725,3.04602 15.773301,8.224 4.576465,5.17756 7.714258,12.5181 9.899964,23.06009 l 0.05168,0.24556 0.0339,0.24888 c 1.014098,7.35542 5.69929,11.61066 13.821998,15.59471 6.93043,3.39948 15.828285,5.82703 24.274275,8.2984 3.78272,-16.94987 -5.192442,-37.62292 -24.312722,-50.53128 C 70.14207,144.86312 58.841054,141.48182 48.372236,141.38715 Z m -33.518574,17.13467 c -10.4469069,17.9958 -2.068711,44.40245 20.714395,59.78425 22.417236,15.135 49.520905,13.34327 62.56569,-2.35644 -7.621654,-2.17206 -16.261953,-4.63848 -24.196973,-8.53033 -10.231934,-5.01882 -19.98431,-13.45241 -21.952148,-26.55011 -1.873995,-8.97103 -4.378028,-13.75834 -6.453353,-16.10651 -2.083594,-2.35934 -3.708301,-2.93316 -6.635254,-3.3321 -2.926953,-0.40018 -6.949447,-0.11451 -11.713187,-0.28236 -3.712435,-0.13064 -8.068138,-0.66353 -12.32917,-2.62599 z m 37.131377,22.34695 c 0.0091,0.0413 0.01819,0.0794 0.02687,0.12113 l -0.08558,-0.49444 c 0.01736,0.12568 0.0401,0.24805 0.05912,0.37373 z"
       id="path1"
       style="fill:#ffffff;stroke-width:0.413411" /></g></svg>
